<?xml version="1.0" encoding="UTF-8"?>
<svg width="63px" height="63px" viewBox="0 0 63 63" version="1.1" xmlns="http://www.w3.org/2000/svg" xmlns:xlink="http://www.w3.org/1999/xlink">
    <title>flag / austrelia</title>
    <defs>
        <circle id="path-1" cx="22.5" cy="22.5" r="22.5"></circle>
        <filter x="-35.6%" y="-24.4%" width="171.1%" height="171.1%" filterUnits="objectBoundingBox" id="filter-2">
            <feOffset dx="0" dy="5" in="SourceAlpha" result="shadowOffsetOuter1"></feOffset>
            <feGaussianBlur stdDeviation="4.5" in="shadowOffsetOuter1" result="shadowBlurOuter1"></feGaussianBlur>
            <feColorMatrix values="0 0 0 0 0   0 0 0 0 0   0 0 0 0 0  0 0 0 0.1 0" type="matrix" in="shadowBlurOuter1"></feColorMatrix>
        </filter>
        <path d="M45,22.499118 C45,34.9255996 34.9263893,45 22.4998236,45 C10.0736107,45 0,34.9255996 0,22.499118 C0,10.0729893 10.0736107,0 22.4998236,0 C34.9263893,0 45,10.0729893 45,22.499118 L45,22.499118 Z" id="path-3"></path>
    </defs>
    <g id="המרת-מטח" stroke="none" stroke-width="1" fill="none" fill-rule="evenodd">
        <g id="45-45px" transform="translate(9.000000, -256.000000)">
            <g id="flag-/-austrelia" transform="translate(0.000000, 260.000000)">
                <g id="Ellipse_79" fill-rule="nonzero">
                    <use fill="black" fill-opacity="1" filter="url(#filter-2)" xlink:href="#path-1"></use>
                    <use fill="#FFFFFF" xlink:href="#path-1"></use>
                </g>
                <g id="austrelia" stroke-width="1" fill-rule="evenodd">
                    <mask id="mask-4" fill="white">
                        <use xlink:href="#path-3"></use>
                    </mask>
                    <g id="Clip-929"></g>
                    <polygon id="Fill-928" fill="#0437A0" mask="url(#mask-4)" points="0 45 45 45 45 0 0 0"></polygon>
                    <polyline id="Fill-930" fill="#F4F4F4" mask="url(#mask-4)" points="3.03929688 -0.805 8.59609375 -0.805 8.59609375 5.72872093 18.4742969 -0.805 22.6343359 -0.805 22.6343359 1.94662791 15.5352344 6.64337209 22.6343359 6.64337209 22.6343359 13.9937209 15.5352344 13.9937209 22.6343359 18.6897674 22.6343359 21.4424419 18.4742969 21.4424419 8.59609375 14.9080233 8.59609375 21.4424419 3.03929688 21.4424419 3.03929688 14.9080233 -6.83890625 21.4424419 -11 21.4424419 -11 18.6897674 -3.89949219 13.9937209 -11 13.9937209 -11 6.64337209 -3.89949219 6.64337209 -11 1.94662791 -11 -0.805 -6.83890625 -0.805 3.03929688 5.72872093 3.03929688 -0.805"></polyline>
                    <path d="M7.55195313,-0.805 L7.55195313,8.0244186 L22.6343359,8.0244186 L22.6343359,12.6130233 L7.55195313,12.6130233 L7.55195313,21.4424419 L4.08238281,21.4424419 L4.08238281,12.6130233 L-11,12.6130233 L-11,8.0244186 L4.08238281,8.0244186 L4.08238281,-0.805 L7.55195313,-0.805 Z M22.6343359,20.4098837 L12.9340234,13.9937209 L9.81355469,13.9937209 L21.0748047,21.4424419 L22.6343359,21.4424419 L22.6343359,20.4098837 Z M12.9340234,6.64337209 L22.6343359,0.227209302 L22.6343359,-0.805 L21.0748047,-0.805 L9.81355469,6.64337209 L12.9340234,6.64337209 Z M1.82148438,6.64337209 L-9.43941406,-0.805 L-11,-0.805 L-11,0.227209302 L-1.29863281,6.64337209 L1.82148438,6.64337209 Z M-1.29863281,13.9937209 L-11,20.4098837 L-11,21.4424419 L-9.43941406,21.4424419 L1.82148438,13.9937209 L-1.29863281,13.9937209 L-1.29863281,13.9937209 Z" id="Fill-931" fill="#FF1612" mask="url(#mask-4)"></path>
                    <polyline id="Fill-932" fill="#F4F4F4" mask="url(#mask-4)" points="39.4523828 28.269186 39.9160938 29.6983721 41.3311328 29.1667442 40.4937109 30.4176744 41.7944922 31.1840698 40.2876953 31.3134884 40.4947656 32.8009302 39.4523828 31.7125581 38.4107031 32.8009302 38.6174219 31.3134884 37.1102734 31.1840698 38.4117578 30.4176744 37.5743359 29.1667442 38.9886719 29.6983721 39.4523828 28.269186"></polyline>
                    <polyline id="Fill-933" fill="#F4F4F4" mask="url(#mask-4)" points="31.0433594 15.0597674 31.5070703 16.4889535 32.9221094 15.9573256 32.0853906 17.207907 33.3858203 17.9736047 31.8786719 18.1044186 32.0857422 19.5911628 31.0433594 18.5031395 30.0009766 19.5911628 30.2094531 18.1044186 28.70125 17.9736047 30.0027344 17.207907 29.1660156 15.9573256 30.5807031 16.4889535 31.0433594 15.0597674"></polyline>
                    <polyline id="Fill-934" fill="#F4F4F4" mask="url(#mask-4)" points="39.4523828 6.02174419 39.9160938 7.45093023 41.3311328 6.91895349 40.4937109 8.16953488 41.7944922 8.93593023 40.2876953 9.06569767 40.4947656 10.5531395 39.4523828 9.46476744 38.4107031 10.5531395 38.6174219 9.06569767 37.1102734 8.93593023 38.4117578 8.16953488 37.5743359 6.91895349 38.9886719 7.45093023 39.4523828 6.02174419"></polyline>
                    <polyline id="Fill-935" fill="#F4F4F4" mask="url(#mask-4)" points="46.92625 12.8352326 47.3899609 14.2640698 48.8035937 13.732093 47.9682813 14.9830233 49.2687109 15.7497674 47.7615625 15.879186 47.9686328 17.3662791 46.92625 16.2782558 45.8838672 17.3662791 46.0912891 15.879186 44.5848438 15.7497674 45.885625 14.9830233 45.0478516 13.732093 46.4635938 14.2640698 46.92625 12.8352326"></polyline>
                    <polyline id="Fill-936" fill="#F4F4F4" mask="url(#mask-4)" points="42.8150781 19.5294186 43.1817578 20.4196512 44.1489063 20.4901163 43.4078125 21.1106977 43.6398438 22.0448837 42.8150781 21.5383721 41.9924219 22.0448837 42.22375 21.1106977 41.4826563 20.4901163 42.4491016 20.4196512 42.8150781 19.5294186"></polyline>
                    <polyline id="Fill-937" fill="#F4F4F4" mask="url(#mask-4)" points="5.81804688 27.2854651 6.79011719 30.2865116 9.76257813 29.1702326 8.00371094 31.7959302 10.7357031 33.4051163 7.5709375 33.677907 8.00722656 36.8010465 5.81804688 34.5161628 3.62816406 36.8010465 4.06445313 33.677907 0.899335938 33.4051163 3.63097656 31.7959302 1.8728125 29.1702326 4.84527344 30.2865116 5.81804688 27.2854651"></polyline>
                </g>
            </g>
        </g>
    </g>
</svg>