<?xml version="1.0" encoding="UTF-8"?>
<svg width="63px" height="63px" viewBox="0 0 63 63" version="1.1" xmlns="http://www.w3.org/2000/svg" xmlns:xlink="http://www.w3.org/1999/xlink">
    <title>flag / British</title>
    <defs>
        <path d="M0,22.5 C0,34.9264466 10.0729191,45 22.4995914,45 L22.4995914,45 C34.9262636,45 45,34.9264466 45,22.5 L45,22.5 C45,10.0743707 34.9262636,0 22.4995914,0 L22.4995914,0 C10.0729191,0 0,10.0743707 0,22.5 L0,22.5 Z" id="path-1"></path>
        <filter x="-35.6%" y="-24.4%" width="171.1%" height="171.1%" filterUnits="objectBoundingBox" id="filter-3">
            <feOffset dx="0" dy="5" in="SourceAlpha" result="shadowOffsetOuter1"></feOffset>
            <feGaussianBlur stdDeviation="4.5" in="shadowOffsetOuter1" result="shadowBlurOuter1"></feGaussianBlur>
            <feColorMatrix values="0 0 0 0 0   0 0 0 0 0   0 0 0 0 0  0 0 0 0.1 0" type="matrix" in="shadowBlurOuter1"></feColorMatrix>
        </filter>
    </defs>
    <g id="המרת-מטח" stroke="none" stroke-width="1" fill="none" fill-rule="evenodd">
        <g id="45-45px" transform="translate(9.000000, -126.000000)">
            <g id="flag-/-British" transform="translate(0.000000, 130.000000)">
                <mask id="mask-2" fill="white">
                    <use xlink:href="#path-1"></use>
                </mask>
                <g id="Clip-2" fill="black" fill-opacity="1">
                    <use filter="url(#filter-3)" xlink:href="#path-1"></use>
                </g>
                <g id="Group-22" stroke-width="1" fill-rule="evenodd" mask="url(#mask-2)">
                    <g transform="translate(-14.750000, -0.250000)">
                        <polygon id="Fill-1" fill="#1E3E9D" points="73.3012438 0.298166667 73.3012438 45.2165 73.2922438 45.2248333 0.74943125 45.2248333 0.74943125 0.298166667"></polygon>
                        <polygon id="Fill-4" fill="#FFFFFF" points="73.3012438 40.5385 73.3012438 45.2162778 73.2922438 45.2251667 65.7423688 45.2251667 43.4758063 31.4357222 41.2466188 30.0557222 38.6163688 28.4235 37.7338063 27.8768333 35.0591188 26.2235 34.0612438 25.6007222 33.2236813 25.0879444 31.5389938 24.0485 30.9956188 23.7079444 30.1749313 23.2029444 22.2673063 18.2985 18.7111813 16.0979444 0.74943125 4.98016667 0.74943125 0.297944444 0.81130625 0.210166667 0.95361875 0.297944444 8.29930625 0.297944444 30.9956188 14.3479444 33.2236813 15.7323889 33.8210563 16.0979444 37.3783063 18.2985 37.7338063 18.5212778 39.0978688 19.3668333 41.2466188 20.6962778 41.6116813 20.9273889 43.4758063 22.0801667 45.2938063 23.2029444 50.1774313 26.2235 53.7346813 28.4235"></polygon>
                        <polygon id="Fill-7" fill="#FC2727" points="73.3083875 45.086 73.323575 45.2498889 68.470325 45.2248889 43.4756375 29.7487778 41.3448875 28.4237778 41.24645 28.3643333 39.0982625 27.0354444 37.7966375 26.2232222 35.4251375 24.7554444 33.2235125 23.401 32.911325 23.2032222 31.538825 22.3493333 30.99545 22.0171111 24.9952625 18.2982222 21.4481375 16.0982222 0.7492625 3.28044444 0.7492625 0.197111111 0.8111375 0.209888889 0.95345 0.298222222 26.4757625 16.0982222 30.0240125 18.2982222 30.99545 18.8998889 33.2235125 20.2837778 34.0616375 20.801 35.4251375 21.6465556 37.9395125 23.2032222 41.24645 25.2476667 41.6115125 25.4787778 42.822575 26.2232222 43.4756375 26.6315556 46.3725125 28.4237778"></polygon>
                        <polygon id="Fill-10" fill="#FFFFFF" points="73.3012438 1.18572222 73.3012438 5.85961111 56.7575563 16.0979444 53.2081813 18.2985 45.2938063 23.2029444 43.4758063 24.3223889 41.6116813 25.4790556 41.2466188 25.7062778 40.4073688 26.2235 39.0978688 27.0357222 37.7338063 27.8768333 36.8512438 28.4235 33.2236813 30.6701667 30.9956188 32.0540556 9.71680625 45.2251667 0.74943125 45.2251667 0.74943125 41.4218333 21.7419313 28.4235 25.2896188 26.2235 30.1749313 23.2029444 30.9956188 22.6940556 31.5389938 22.3490556 33.2236813 21.3101667 34.0612438 20.8012778 37.7338063 18.5212778 38.0904313 18.2985 41.2466188 16.3468333 41.6482438 16.0979444 43.4758063 14.9668333 67.1694313 0.297944444 72.7303063 0.297944444"></polygon>
                        <polygon id="Fill-13" fill="#FC2727" points="73.1139313 1.41711111 49.4028688 16.0982222 45.8461813 18.2982222 43.4758063 19.7704444 41.6116813 20.9276667 41.2466188 21.1543333 37.9396813 23.2032222 35.4253063 24.7554444 34.0612438 25.601 33.2236813 26.1182222 33.0538063 26.2232222 30.9956188 27.5026667 29.4976813 28.4237778 2.38180625 45.2248889 0.74943125 45.2248889 0.74943125 43.1215556 24.4694938 28.4237778 28.0261813 26.2232222 30.9956188 24.3854444 31.5389938 24.0487778 32.9109313 23.2032222 33.2236813 23.0015556 35.4253063 21.6465556 39.0978688 19.3665556 40.8185563 18.2982222 41.2466188 18.0376667 43.4758063 16.6532222 44.3752438 16.0982222 69.8868688 0.298222222 72.4102438 0.298222222 73.3012438 0.298222222 73.3085563 1.28266667"></polygon>
                        <polygon id="Fill-16" fill="#FFFFFF" points="1.25 29.5 73.25 29.5 73.25 16 1.25 16"></polygon>
                        <polygon id="Fill-18" fill="#FF3844" points="1.25 27.25 73.25 27.25 73.25 18.25 1.25 18.25"></polygon>
                        <polygon id="Fill-19" fill="#EF0026" points="32.75 45.25 41.75 45.25 41.75 0.25 32.75 0.25"></polygon>
                        <polygon id="Fill-20" fill="#FFFFFF" points="41.587656 28.4214646 44 28.4214646 44 45.25 30.5 45.25 30.5 28.4214646 32.9111271 28.4214646 32.9111271 16.0757902 30.5 16.0757902 30.5 0.25 44 0.25 44 16.0757902 41.587656 16.0757902"></polygon>
                        <polygon id="Fill-21" fill="#FF3844" points="32.75 45.25 41.75 45.25 41.75 0.25 32.75 0.25"></polygon>
                    </g>
                </g>
            </g>
        </g>
    </g>
</svg>