<?xml version="1.0" encoding="UTF-8"?>
<svg width="63px" height="63px" viewBox="0 0 63 63" version="1.1" xmlns="http://www.w3.org/2000/svg" xmlns:xlink="http://www.w3.org/1999/xlink">
    <title>flag / canada</title>
    <defs>
        <circle id="path-1" cx="22.5" cy="22.5" r="22.5"></circle>
        <filter x="-35.6%" y="-24.4%" width="171.1%" height="171.1%" filterUnits="objectBoundingBox" id="filter-2">
            <feOffset dx="0" dy="5" in="SourceAlpha" result="shadowOffsetOuter1"></feOffset>
            <feGaussianBlur stdDeviation="4.5" in="shadowOffsetOuter1" result="shadowBlurOuter1"></feGaussianBlur>
            <feColorMatrix values="0 0 0 0 0   0 0 0 0 0   0 0 0 0 0  0 0 0 0.1 0" type="matrix" in="shadowBlurOuter1"></feColorMatrix>
        </filter>
        <path d="M45,22.4998236 C45,34.9264262 34.9259944,45 22.5,45 C10.0733,45 0,34.9264262 0,22.4998236 C0,10.0725155 10.0733,0 22.5,0 C34.9259944,0 45,10.0725155 45,22.4998236 L45,22.4998236 Z" id="path-3"></path>
    </defs>
    <g id="המרת-מטח" stroke="none" stroke-width="1" fill="none" fill-rule="evenodd">
        <g id="45-45px" transform="translate(9.000000, -516.000000)">
            <g id="flag-/-canada" transform="translate(0.000000, 520.000000)">
                <g id="Ellipse_79" fill-rule="nonzero">
                    <use fill="black" fill-opacity="1" filter="url(#filter-2)" xlink:href="#path-1"></use>
                    <use fill="#FFFFFF" xlink:href="#path-1"></use>
                </g>
                <g id="canada" stroke-width="1" fill-rule="evenodd">
                    <mask id="mask-4" fill="white">
                        <use xlink:href="#path-3"></use>
                    </mask>
                    <g id="Clip-3120"></g>
                    <polygon id="Fill-3119" fill="#FFFFFF" mask="url(#mask-4)" points="5.60425781 44.8632422 39.2899219 44.8632422 39.2899219 0.01828125 5.60425781 0.01828125"></polygon>
                    <polygon id="Fill-3121" fill="#FF1612" mask="url(#mask-4)" points="-11.1867188 44.8632422 5.60425781 44.8632422 5.60425781 0.01828125 -11.1867188 0.01828125"></polygon>
                    <polygon id="Fill-3122" fill="#FF1612" mask="url(#mask-4)" points="39.2899219 44.8632422 56.0798438 44.8632422 56.0798438 0.01828125 39.2899219 0.01828125"></polygon>
                    <path d="M22.3952344,8.17523437 C22.3952344,8.17523437 24.3812109,11.9183203 24.665625,12.3985547 C24.9507422,12.8780859 25.2351563,12.9452344 25.9245703,12.6228516 C26.6146875,12.3008203 27.6106641,11.7530859 27.6106641,11.7530859 C27.6106641,11.7530859 26.4990234,17.5654687 26.3257031,18.5027344 C26.1530859,19.4382422 26.7760547,19.7620312 27.3891797,19.0571484 C28.0044141,18.3529688 30.2748047,15.8196094 30.2748047,15.8196094 C30.2748047,15.8196094 30.6049219,16.9808203 30.695625,17.3482031 C30.7852734,17.7148828 30.9803906,17.9627344 31.6532813,17.8351172 C32.3286328,17.7078516 35.105625,17.0975391 35.105625,17.0975391 C35.105625,17.0975391 34.1279297,20.5709766 34.0301953,21.0280078 C33.9328125,21.4850391 33.8273438,21.6653906 34.3898438,21.9420703 C34.9523438,22.2198047 35.6491406,22.5348047 35.6491406,22.5348047 C35.6491406,22.5348047 29.9425781,27.2380078 29.4542578,27.6043359 C28.9669922,27.9713672 28.8703125,28.1900391 29.109375,28.9532812 C29.3487891,29.7179297 29.5446094,30.4674609 29.5446094,30.4674609 C29.5446094,30.4674609 23.9044922,29.6771484 23.2832813,29.5948828 C22.6603125,29.5119141 22.7214844,30.1721484 22.73625,30.5163281 C22.7510156,30.8608594 22.9025391,36.8107031 22.9025391,36.8107031 L21.8882813,36.8107031 C21.8882813,36.8107031 22.0391016,30.8608594 22.0538672,30.5163281 C22.0682812,30.1721484 22.12875,29.5119141 21.5068359,29.5948828 C20.8845703,29.6771484 15.2451563,30.4674609 15.2451563,30.4674609 C15.2451563,30.4674609 15.4392188,29.7179297 15.6793359,28.9532812 C15.9191016,28.1900391 15.8220703,27.9713672 15.3351562,27.6043359 C14.8482422,27.2380078 9.14027344,22.5348047 9.14027344,22.5348047 C9.14027344,22.5348047 9.83742187,22.2198047 10.4002734,21.9420703 C10.9624219,21.6653906 10.8569531,21.4850391 10.7599219,21.0280078 C10.6618359,20.5709766 9.68378906,17.0975391 9.68378906,17.0975391 C9.68378906,17.0975391 12.4604297,17.7078516 13.1357813,17.8351172 C13.809375,17.9627344 14.0048438,17.7148828 14.0941406,17.3482031 C14.1837891,16.9808203 14.5139063,15.8196094 14.5139063,15.8196094 C14.5139063,15.8196094 16.7846484,18.3529688 17.3998828,19.0571484 C18.0144141,19.7620312 18.6363281,19.4382422 18.4644141,18.5027344 C18.2917969,17.5654687 17.1780469,11.7530859 17.1780469,11.7530859 C17.1780469,11.7530859 18.1750781,12.3008203 18.8644922,12.6228516 C19.5542578,12.9452344 19.839375,12.8780859 20.1234375,12.3985547 C20.4085547,11.9183203 22.3952344,8.17523437 22.3952344,8.17523437" id="Fill-3123" fill="#FF1612" mask="url(#mask-4)"></path>
                </g>
            </g>
        </g>
    </g>
</svg>