<svg xmlns="http://www.w3.org/2000/svg" xmlns:xlink="http://www.w3.org/1999/xlink" width="123" height="105" viewBox="0 0 123 105">
    <defs>
        <path id="a" d="M.082.085H25.33v48.43H.082z"/>
        <path id="c" d="M.215 15.504c0 3.473 2.742 7.063 7.523 9.855 5.61 3.271 13.16 5.074 21.26 5.074 8.103 0 15.653-1.803 21.263-5.074 4.781-2.792 7.524-6.382 7.524-9.855 0-3.471-2.743-7.064-7.524-9.855C44.65 2.376 37.1.573 28.999.573c-8.1 0-15.651 1.803-21.261 5.076-4.78 2.79-7.524 6.384-7.523 9.855z"/>
        <linearGradient id="e" x1="0%" y1="50%" y2="50%">
            <stop offset="0%" stop-color="#C01039"/>
            <stop offset="100%" stop-color="#E02A19"/>
        </linearGradient>
        <linearGradient id="f" x1="0%" y1="50%" y2="50%">
            <stop offset="0%" stop-color="#C01039"/>
            <stop offset="67.469%" stop-color="#DC1223"/>
            <stop offset="84.355%" stop-color="#DE1E1E"/>
            <stop offset="100%" stop-color="#E02A19"/>
        </linearGradient>
        <linearGradient id="g" x1="0%" y1="50%" y2="50%">
            <stop offset="0%" stop-color="#0A294C"/>
            <stop offset="100%" stop-color="#113D6F"/>
        </linearGradient>
    </defs>
    <g fill="none" fill-rule="evenodd">
        <path fill="#DAE6F3" d="M73.817 82.83c-25.93-3.618-25.512-14.4.935-24.081 4.13-1.512-25.57.246-22.128-.645 18.599-4.817 28.963-1.372 50.673 1.698 25.728 3.637 25.31 14.418-.935 24.08-13.06 4.807-22.047 6.19-30.976 5.922-9.013-.271 15.456-5.159 2.431-6.975z"/>
        <g transform="translate(94.075 20.765)">
            <mask id="b" fill="#fff">
                <use xlink:href="#a"/>
            </mask>
            <path fill="#F1F6FB" d="M3.005 48.515c.878-.093 8.796-1.248 16.786-13.233 3.799-5.7 6.836-16.143 4.976-24.27-.926-4.051-3.036-7.137-6.1-8.925C10.194-2.857 2.807 2.482.083 5.993l5.166 4.093-2.582-2.047 2.57 2.063c.457-.572 4.618-5.499 10.15-2.27 1.469.856 2.473 2.43 2.987 4.674 1.328 5.805-1.01 14.546-4.026 19.07-6.226 9.34-11.966 10.335-12.02 10.34l.678 6.599z" mask="url(#b)"/>
        </g>
        <path fill="#F1F6FB" d="M39.328 20.63l66.205.205-6.018 53.604h-.009c-.05 4.005-2.685 8-7.92 11.055-10.575 6.17-27.718 6.17-38.291 0-5.257-3.068-7.894-7.084-7.924-11.105L39.328 20.63z"/>
        <path fill="#FFF" d="M95.89 5.902c12.95 7.557 12.95 19.81 0 27.368-12.952 7.557-33.948 7.557-46.899 0-12.949-7.557-12.949-19.81 0-27.368 12.95-7.559 33.947-7.559 46.898 0"/>
        <path fill="#F1F6FB" d="M72.44 34.515c8.101 0 15.653-1.803 21.261-5.075 4.783-2.79 7.525-6.382 7.525-9.854 0-3.472-2.742-7.064-7.525-9.855-5.608-3.272-13.16-5.076-21.261-5.076-8.1 0-15.652 1.804-21.26 5.076-4.782 2.791-7.525 6.383-7.525 9.855 0 3.472 2.743 7.063 7.524 9.854 5.61 3.272 13.16 5.075 21.26 5.075"/>
        <g transform="translate(43.44 4.082)">
            <mask id="d" fill="#fff">
                <use xlink:href="#c"/>
            </mask>
            <path fill="#57373A" d="M28.997 39.344c8.102 0 15.653-1.802 21.262-5.075 4.782-2.791 7.525-6.383 7.525-9.854 0-3.473-2.743-7.065-7.525-9.856-5.609-3.272-13.16-5.075-21.262-5.075-8.1 0-15.651 1.803-21.26 5.075C2.955 17.35.212 20.942.213 24.415c0 3.471 2.742 7.063 7.524 9.854 5.609 3.273 13.16 5.075 21.26 5.075" mask="url(#d)"/>
        </g>
        <path fill="#7F5B5F" d="M82.737 16.838c-8.424-.73-21.66 1.338-25.271 6.203-3.61 4.865 10.108 9.608 10.108 9.608s-14.08-.851-17.69-6.568c-3.61-5.716 17.57-12.891 32.853-9.243"/>
        <g>
            <path fill="#DAE6F3" d="M18.752 91.474c-.916-.71-1.2-1.224-1.2-1.224-1.549-3.913-4.187-12.115 16.587-11.885.416.01 3.612.342 5.215 1.116 1.07.517 1.765 1.32 2.086 2.41.25.666.317 1.287.317 1.811 0 2.794-5.997 7.86-23.005 7.772z"/>
            <path fill="#F1F6FB" d="M19.042 66.618C2.666 66.264-.21 76.645 1.002 82.661c0 0 2.27 8.177 16.658 8.806 14.388.63 19.424-7.234 19.424-11.52 0-4.285-1.665-12.974-18.042-13.329"/>
            <path fill="url(#e)" d="M.244 18.236s1.78 8.47 17.626 8.648c15.845.18 18.174-8.876 18.174-8.876l.227-4.33L.244 15.502v2.735z" transform="translate(.757 60)"/>
            <path fill="#F1F6FB" d="M19.042 60.008C2.666 59.668-.21 69.692 1.002 75.501c0 0 2.27 7.9 16.658 8.507 14.388.608 19.424-6.987 19.424-11.125 0-4.14-1.665-12.532-18.042-12.875"/>
            <path fill="#DAE6F3" d="M35.668 69.548a9.56 9.56 0 0 1-2.453 4.22c-4.178 5.422-10.12 8.056-16.86 8.446-2.116.122-4.394-.292-6.437-.717-2.109-.438-4.33-1.565-6.139-2.394-.212-.096-.418-.206-.626-.315 2.185 2.247 6.442 4.88 14.507 5.22 14.39.608 19.425-6.987 19.425-11.126 0-1.25-.156-2.885-.817-4.57-.171.418-.367.83-.6 1.236"/>
        </g>
        <g>
            <path fill="#DAE6F3" d="M48.752 104.474c-.916-.71-1.2-1.224-1.2-1.224-1.549-3.913-4.187-12.115 16.587-11.885.416.01 3.612.342 5.215 1.116 1.07.517 1.765 1.32 2.086 2.41.25.666.317 1.287.317 1.811 0 2.794-5.997 7.86-23.005 7.772z" opacity=".74"/>
            <path fill="#F1F6FB" d="M49.042 79.618c-16.376-.354-19.252 10.027-18.04 16.043 0 0 2.27 8.177 16.658 8.806 14.388.63 19.424-7.234 19.424-11.52 0-4.285-1.665-12.974-18.042-13.329"/>
            <path fill="url(#f)" d="M.244 18.236s1.78 8.47 17.626 8.648c15.845.18 18.174-8.876 18.174-8.876l.227-4.33L.244 15.502v2.735z" transform="translate(30.757 73)"/>
            <path fill="#F1F6FB" d="M49.042 73.008c-16.376-.34-19.252 9.684-18.04 15.493 0 0 2.27 7.9 16.658 8.507 14.388.608 19.424-6.987 19.424-11.125 0-4.14-1.665-12.532-18.042-12.875"/>
            <path fill="#DAE6F3" d="M65.668 82.548a9.56 9.56 0 0 1-2.453 4.22c-4.178 5.422-10.12 8.056-16.86 8.446-2.116.122-4.394-.292-6.437-.717-2.109-.438-4.33-1.565-6.139-2.394-.212-.096-.418-.206-.626-.315 2.185 2.247 6.442 4.88 14.507 5.22 14.39.608 19.425-6.987 19.425-11.126 0-1.25-.156-2.885-.817-4.57-.171.418-.367.83-.6 1.236"/>
        </g>
        <g>
            <path fill="#DAE6F3" d="M35.752 85.474c-.916-.71-1.2-1.224-1.2-1.224-1.549-3.913-4.187-12.115 16.587-11.885.416.01 3.612.342 5.215 1.116 1.07.517 1.765 1.32 2.086 2.41.25.666.317 1.287.317 1.811 0 2.794-5.997 7.86-23.005 7.772z"/>
            <path fill="#F1F6FB" d="M36.042 60.618c-16.376-.354-19.252 10.027-18.04 16.043 0 0 2.27 8.177 16.658 8.806 14.388.63 19.424-7.234 19.424-11.52 0-4.285-1.665-12.974-18.042-13.329"/>
            <path fill="url(#g)" d="M.244 18.236s1.78 8.47 17.626 8.648c15.845.18 18.174-8.876 18.174-8.876l.227-4.33L.244 15.502v2.735z" transform="translate(17.757 54)"/>
            <path fill="#F1F6FB" d="M36.042 54.008c-16.376-.34-19.252 9.684-18.04 15.493 0 0 2.27 7.9 16.658 8.507 14.388.608 19.424-6.987 19.424-11.125 0-4.14-1.665-12.532-18.042-12.875"/>
            <path fill="#DAE6F3" d="M52.668 63.548a9.56 9.56 0 0 1-2.453 4.22c-4.178 5.422-10.12 8.056-16.86 8.446-2.116.122-4.394-.292-6.437-.717-2.109-.438-4.33-1.565-6.139-2.394-.212-.096-.418-.206-.626-.315 2.185 2.247 6.442 4.88 14.507 5.22 14.39.608 19.425-6.987 19.425-11.126 0-1.25-.156-2.885-.817-4.57-.171.418-.367.83-.6 1.236"/>
        </g>
    </g>
</svg>
