<?xml version="1.0" encoding="UTF-8"?>
<svg width="63px" height="63px" viewBox="0 0 63 63" version="1.1" xmlns="http://www.w3.org/2000/svg" xmlns:xlink="http://www.w3.org/1999/xlink">
    <title>flag / Euro</title>
    <defs>
        <circle id="path-1" cx="22.5" cy="22.5" r="22.5"></circle>
        <filter x="-35.6%" y="-24.4%" width="171.1%" height="171.1%" filterUnits="objectBoundingBox" id="filter-2">
            <feOffset dx="0" dy="5" in="SourceAlpha" result="shadowOffsetOuter1"></feOffset>
            <feGaussianBlur stdDeviation="4.5" in="shadowOffsetOuter1" result="shadowBlurOuter1"></feGaussianBlur>
            <feColorMatrix values="0 0 0 0 0   0 0 0 0 0   0 0 0 0 0  0 0 0 0.1 0" type="matrix" in="shadowBlurOuter1"></feColorMatrix>
        </filter>
    </defs>
    <g id="המרת-מטח" stroke="none" stroke-width="1" fill="none" fill-rule="evenodd">
        <g id="45-45px" transform="translate(9.000000, 4.000000)" fill-rule="nonzero">
            <g id="flag-/-Euro">
                <g id="Ellipse_79">
                    <use fill="black" fill-opacity="1" filter="url(#filter-2)" xlink:href="#path-1"></use>
                    <use fill="#063397" xlink:href="#path-1"></use>
                </g>
                <polygon id="Path_1658" fill="#FECB17" points="16.6773913 30.8043692 17.1469565 32.2252615 18.6534783 32.2252615 17.4306522 33.1053231 17.9002174 34.5262154 16.6773913 33.6461538 15.4545652 34.5262154 15.9241304 33.1053231 14.7013043 32.2252615 16.2078261 32.2252615"></polygon>
                <polygon id="Path_1659" fill="#FECB17" points="29.1521739 30.8043692 29.6217391 32.2252615 31.1341304 32.2252615 29.9113043 33.1053231 30.375 34.5262154 29.1521739 33.6461538 27.9352174 34.5262154 28.398913 33.1053231 27.176087 32.2252615 28.6884783 32.2252615"></polygon>
                <polygon id="Path_1660" fill="#FECB17" points="16.6773913 9.40375385 17.1469565 10.8304615 18.6534783 10.8304615 17.4306522 11.7066462 17.9002174 13.1333538 16.6773913 12.2532923 15.4545652 13.1333538 15.9241304 11.7066462 14.7013043 10.8304615 16.2078261 10.8304615"></polygon>
                <polygon id="Path_1661" fill="#FECB17" points="29.1521739 9.40375385 29.6217391 10.8304615 31.1341304 10.8304615 29.9113043 11.7066462 30.375 13.1333538 29.1521739 12.2532923 27.9352174 13.1333538 28.398913 11.7066462 27.176087 10.8304615 28.6884783 10.8304615"></polygon>
                <polygon id="Path_1662" fill="#FECB17" points="33.7167391 13.9223077 34.1863043 15.3490154 35.6928261 15.3490154 34.47 16.2252 34.9395652 17.6519077 33.7167391 16.7718462 32.493913 17.6519077 32.9634783 16.2252 31.7426087 15.3490154 33.2491304 15.3490154"></polygon>
                <polygon id="Path_1663" fill="#FECB17" points="12.1128261 13.9223077 12.5823913 15.3490154 14.0947826 15.3490154 12.8719565 16.2252 13.3356522 17.6519077 12.1128261 16.7718462 10.8958696 17.6519077 11.3595652 16.2252 10.1367391 15.3490154 11.6491304 15.3490154"></polygon>
                <polygon id="Path_1664" fill="#FECB17" points="33.7167391 26.2858154 34.1863043 27.7067077 35.6928261 27.7067077 34.47 28.5867692 34.9395652 30.0076615 33.7167391 29.1276 32.493913 30.0076615 32.9634783 28.5867692 31.7426087 27.7067077 33.2491304 27.7067077"></polygon>
                <polygon id="Path_1665" fill="#FECB17" points="12.1128261 26.2858154 12.5823913 27.7067077 14.0947826 27.7067077 12.8719565 28.5867692 13.3356522 30.0076615 12.1128261 29.1276 10.8958696 30.0076615 11.3595652 28.5867692 10.1367391 27.7067077 11.6491304 27.7067077"></polygon>
                <polygon id="Path_1666" fill="#FECB17" points="22.9108696 7.74830769 23.3804348 9.1692 24.8869565 9.1692 23.6641304 10.0492615 24.1336957 11.4701538 22.9108696 10.5900923 21.6880435 11.4701538 22.1576087 10.0492615 20.9347826 9.1692 22.4413043 9.1692"></polygon>
                <polygon id="Path_1667" fill="#FECB17" points="22.9108696 32.4598154 23.3804348 33.8865231 24.8869565 33.8865231 23.6641304 34.7627077 24.1336957 36.1894154 22.9108696 35.3093538 21.6880435 36.1894154 22.1576087 34.7627077 20.9347826 33.8884615 22.4413043 33.8884615"></polygon>
                <polygon id="Path_1668" fill="#FECB17" points="35.3836957 20.0982462 35.8473913 21.5191385 37.3597826 21.5191385 36.138913 22.3992 36.6065217 23.8200923 35.3836957 22.9400308 34.1608696 23.8200923 34.6245652 22.3992 33.4076087 21.5191385 34.9141304 21.5191385"></polygon>
                <polygon id="Path_1669" fill="#FECB17" points="10.4517391 20.0982462 10.9154348 21.5191385 12.4278261 21.5191385 11.205 22.3992 11.6745652 23.8200923 10.4517391 22.9400308 9.23086957 23.8200923 9.69456522 22.3992 8.4776087 21.5191385 9.98413043 21.5191385"></polygon>
            </g>
        </g>
    </g>
</svg>