<?xml version="1.0" encoding="UTF-8"?>
<svg width="63px" height="63px" viewBox="0 0 63 63" version="1.1" xmlns="http://www.w3.org/2000/svg" xmlns:xlink="http://www.w3.org/1999/xlink">
    <title>flag / jorden</title>
    <defs>
        <circle id="path-1" cx="22.5" cy="22.5" r="22.5"></circle>
        <filter x="-35.6%" y="-24.4%" width="171.1%" height="171.1%" filterUnits="objectBoundingBox" id="filter-2">
            <feOffset dx="0" dy="5" in="SourceAlpha" result="shadowOffsetOuter1"></feOffset>
            <feGaussianBlur stdDeviation="4.5" in="shadowOffsetOuter1" result="shadowBlurOuter1"></feGaussianBlur>
            <feColorMatrix values="0 0 0 0 0   0 0 0 0 0   0 0 0 0 0  0 0 0 0.1 0" type="matrix" in="shadowBlurOuter1"></feColorMatrix>
        </filter>
        <path d="M45,22.4998236 C45,34.926779 34.9260734,45.0010583 22.4998236,45.0010583 C10.0735738,45.0010583 0,34.926779 0,22.4998236 C0,10.073221 10.0735738,0 22.4998236,0 C34.9260734,0 45,10.073221 45,22.4998236" id="path-3"></path>
    </defs>
    <g id="המרת-מטח" stroke="none" stroke-width="1" fill="none" fill-rule="evenodd">
        <g id="45-45px" transform="translate(9.000000, -451.000000)">
            <g id="flag-/-jorden" transform="translate(0.000000, 455.000000)">
                <g id="Ellipse_79" fill-rule="nonzero">
                    <use fill="black" fill-opacity="1" filter="url(#filter-2)" xlink:href="#path-1"></use>
                    <use fill="#FFFFFF" xlink:href="#path-1"></use>
                </g>
                <g id="jordan" stroke-width="1" fill-rule="evenodd">
                    <mask id="mask-4" fill="white">
                        <use xlink:href="#path-3"></use>
                    </mask>
                    <g id="Clip-7160"></g>
                    <polyline id="Fill-7159" fill="#000000" mask="url(#mask-4)" points="55.8795349 14.8444186 55.8795349 0.0122093023 -10.8659302 0.0122093023 22.5062791 22.2606977 11.3825581 14.8444186 55.8795349 14.8444186"></polyline>
                    <polyline id="Fill-7161" fill="#F4F4F4" mask="url(#mask-4)" points="11.3825581 29.6773256 55.879186 29.6773256 55.879186 14.8444186 11.3825581 14.8444186 22.5062791 22.2606977 11.3825581 29.6773256"></polyline>
                    <polygon id="Fill-7162" fill="#00840F" mask="url(#mask-4)" points="55.879186 29.6773256 55.879186 45.5098837 -12.4942445 45.5098837 11.3825581 29.6773256"></polygon>
                    <polyline id="Fill-7163" fill="#F90805" mask="url(#mask-4)" points="-10.8659302 0.0122093023 -10.8659302 44.5105814 22.5062791 22.2606977 -10.8659302 0.0122093023"></polyline>
                    <polyline id="Fill-7164" fill="#F4F4F4" mask="url(#mask-4)" points="5.80639535 18.7566279 6.46465116 20.4973256 8.23569767 19.9269767 7.28581395 21.5263953 8.835 22.555814 6.9927907 22.8104651 7.15430233 24.6638372 5.80639535 23.3818605 4.4577907 24.6638372 4.61965116 22.8104651 2.77709302 22.555814 4.32662791 21.5263953 3.37709302 19.9269767 5.14744186 20.4962791 5.80639535 18.7566279"></polyline>
                </g>
            </g>
        </g>
    </g>
</svg>