<?xml version="1.0" encoding="UTF-8"?>
<svg width="63px" height="63px" viewBox="0 0 63 63" version="1.1" xmlns="http://www.w3.org/2000/svg" xmlns:xlink="http://www.w3.org/1999/xlink">
    <title>flag / JPY</title>
    <defs>
        <circle id="path-1" cx="22.5" cy="22.5" r="22.5"></circle>
        <filter x="-35.6%" y="-24.4%" width="171.1%" height="171.1%" filterUnits="objectBoundingBox" id="filter-2">
            <feOffset dx="0" dy="5" in="SourceAlpha" result="shadowOffsetOuter1"></feOffset>
            <feGaussianBlur stdDeviation="4.5" in="shadowOffsetOuter1" result="shadowBlurOuter1"></feGaussianBlur>
            <feColorMatrix values="0 0 0 0 0   0 0 0 0 0   0 0 0 0 0  0 0 0 0.1 0" type="matrix" in="shadowBlurOuter1"></feColorMatrix>
        </filter>
    </defs>
    <g id="המרת-מטח" stroke="none" stroke-width="1" fill="none" fill-rule="evenodd">
        <g id="45-45px" transform="translate(9.000000, -191.000000)">
            <g id="flag-/-JPY" transform="translate(0.000000, 195.000000)">
                <g id="Ellipse_79" fill-rule="nonzero">
                    <use fill="black" fill-opacity="1" filter="url(#filter-2)" xlink:href="#path-1"></use>
                    <use fill="#FFFFFF" xlink:href="#path-1"></use>
                </g>
                <path d="M33.75,22.4993163 C33.75,22.9560164 33.7212853,23.4058797 33.6679581,23.8489061 C33.6296718,24.1729717 33.5777119,24.4929353 33.5120784,24.806062 C33.5079763,24.8238377 33.5038742,24.8402461 33.4997721,24.8593892 C33.3890155,25.3885597 33.2399727,25.9026892 33.0553783,26.4017776 C32.8065178,27.0758888 32.4947584,27.7212853 32.1269371,28.3270283 C31.99567,28.543072 31.8575661,28.7536463 31.7139927,28.9587511 C31.6305834,29.0763446 31.5485415,29.1912033 31.4610301,29.3046946 C30.8224704,30.140155 30.0745214,30.8826345 29.2308569,31.5143573 C27.3520966,32.9186418 25.0234731,33.75 22.5006837,33.75 C22.0015953,33.75 21.510711,33.7171832 21.0293984,33.652917 C21.0143573,33.652917 20.9965816,33.6501823 20.9815406,33.6460802 C19.4131723,33.4368733 17.9473564,32.9022334 16.655196,32.1132634 C16.6387876,32.1023245 16.6223792,32.092753 16.6059708,32.0831814 C16.3188241,31.9067912 16.0371468,31.7167274 15.7691431,31.5143573 C14.9268459,30.8826345 14.178897,30.140155 13.5403373,29.3046946 C13.4541933,29.1912033 13.370784,29.0763446 13.288742,28.9587511 C13.1438013,28.7536463 13.0070647,28.543072 12.8744303,28.3270283 C12.5066089,27.7212853 12.1948496,27.0758888 11.9473564,26.4017776 C11.7613947,25.9026892 11.6123519,25.3885597 11.5002279,24.8593892 C11.4947584,24.8402461 11.4920237,24.8224704 11.4865542,24.8046946 C11.4222881,24.4902005 11.3703282,24.170237 11.3306746,23.8489061 C11.2787147,23.4058797 11.25,22.9560164 11.25,22.4993163 C11.25,21.7103464 11.3306746,20.941887 11.4865542,20.1966727 C11.4920237,20.178897 11.4933911,20.1611212 11.5002279,20.1419781 C11.75866,18.918186 12.2194622,17.7668642 12.8443482,16.726299 C12.9879216,16.4842753 13.1424339,16.2463537 13.3065178,16.0166363 C14.1843665,14.773701 15.3097083,13.7153601 16.6087056,12.9168186 C16.6223792,12.9058797 16.6387876,12.8963081 16.655196,12.8853692 C17.5918414,12.3151778 18.6201003,11.8776208 19.7098906,11.5986782 C19.7208295,11.5959435 19.7304011,11.5945761 19.7427074,11.5932088 C20.1474476,11.4920237 20.560392,11.4113491 20.9815406,11.3539198 C20.9965816,11.3525524 21.0143573,11.3484503 21.0293984,11.3484503 C21.510711,11.2828168 22.0015953,11.25 22.5006837,11.25 C25.0945761,11.25 27.4860985,12.1305834 29.3908387,13.6100729 C30.2727894,14.2923883 31.0494531,15.1059708 31.6893801,16.0166363 C31.726299,16.0644941 31.7604831,16.1150866 31.7946673,16.1643118 C31.9204649,16.3475387 32.0407931,16.5362352 32.1542844,16.726299 C32.5330447,17.3539198 32.8489061,18.0198268 33.0963993,18.7171832 C33.2618505,19.1793528 33.3972197,19.6538286 33.5025068,20.1419781 C33.5066089,20.1611212 33.5079763,20.1761623 33.5120784,20.193938 C33.5872835,20.5480857 33.6447129,20.9063355 33.6829991,21.2727894 C33.7267548,21.6734275 33.75,22.0850046 33.75,22.4993163" id="Fill-4" fill="#DB012A" fill-rule="evenodd"></path>
            </g>
        </g>
    </g>
</svg>