<?xml version="1.0" encoding="UTF-8"?>
<svg width="63px" height="63px" viewBox="0 0 63 63" version="1.1" xmlns="http://www.w3.org/2000/svg" xmlns:xlink="http://www.w3.org/1999/xlink">
    <title>flag / norway</title>
    <defs>
        <circle id="path-1" cx="22.5" cy="22.5" r="22.5"></circle>
        <filter x="-35.6%" y="-24.4%" width="171.1%" height="171.1%" filterUnits="objectBoundingBox" id="filter-2">
            <feOffset dx="0" dy="5" in="SourceAlpha" result="shadowOffsetOuter1"></feOffset>
            <feGaussianBlur stdDeviation="4.5" in="shadowOffsetOuter1" result="shadowBlurOuter1"></feGaussianBlur>
            <feColorMatrix values="0 0 0 0 0   0 0 0 0 0   0 0 0 0 0  0 0 0 0.1 0" type="matrix" in="shadowBlurOuter1"></feColorMatrix>
        </filter>
        <path d="M45,22.499118 C45,34.9268159 34.9267,45 22.5003528,45 C10.0733,45 0,34.9268159 0,22.499118 C0,10.0731841 10.0733,0 22.5003528,0 C34.9267,0 45,10.0731841 45,22.499118 L45,22.499118 Z" id="path-3"></path>
    </defs>
    <g id="המרת-מטח" stroke="none" stroke-width="1" fill="none" fill-rule="evenodd">
        <g id="45-45px" transform="translate(9.000000, -581.000000)">
            <g id="flag-/-norway" transform="translate(0.000000, 585.000000)">
                <g id="Ellipse_79" fill-rule="nonzero">
                    <use fill="black" fill-opacity="1" filter="url(#filter-2)" xlink:href="#path-1"></use>
                    <use fill="#FFFFFF" xlink:href="#path-1"></use>
                </g>
                <g id="norway" stroke-width="1" fill-rule="evenodd">
                    <mask id="mask-4" fill="white">
                        <use xlink:href="#path-3"></use>
                    </mask>
                    <g id="Clip-8134"></g>
                    <path d="M-8.38230469,45.0288281 L10.4526562,45.0288281 L10.4526562,27.9882422 L-8.38230469,27.9882422 L-8.38230469,45.0288281 Z M21.2150391,45.0288281 L58.8842578,45.0288281 L58.8842578,27.9882422 L21.2150391,27.9882422 L21.2150391,45.0288281 Z M21.2150391,17.2258594 L58.8842578,17.2258594 L58.8842578,0.185273438 L21.2150391,0.185273438 L21.2150391,17.2258594 Z M-8.38230469,17.2258594 L10.4526562,17.2258594 L10.4526562,0.185273438 L-8.38230469,0.185273438 L-8.38230469,17.2258594 Z" id="Fill-8133" fill="#FF1612" mask="url(#mask-4)"></path>
                    <path d="M10.4526563,45.0288281 L13.1428125,45.0288281 L13.1428125,25.2984375 L-8.38230469,25.2984375 L-8.38230469,27.9882422 L10.4526563,27.9882422 L10.4526563,45.0288281 Z M18.5252344,45.0288281 L21.2150391,45.0288281 L21.2150391,27.9882422 L58.8846094,27.9882422 L58.8846094,25.2984375 L18.5252344,25.2984375 L18.5252344,45.0288281 Z M58.8846094,19.9160156 L58.8846094,17.2258594 L21.2150391,17.2258594 L21.2150391,0.185273438 L18.5252344,0.185273438 L18.5252344,19.9160156 L58.8846094,19.9160156 Z M13.1428125,0.185273438 L10.4526563,0.185273438 L10.4526563,17.2258594 L-8.38230469,17.2258594 L-8.38230469,19.9160156 L13.1428125,19.9160156 L13.1428125,0.185273438 L13.1428125,0.185273438 Z" id="Fill-8135" fill="#F4F4F4" mask="url(#mask-4)"></path>
                    <polygon id="Fill-8136" fill="#0437A0" mask="url(#mask-4)" points="-8.38230469 25.2984375 13.1428125 25.2984375 13.1428125 45.0288281 18.5252344 45.0288281 18.5252344 25.2984375 58.8846094 25.2984375 58.8846094 19.9160156 18.5252344 19.9160156 18.5252344 0.185273438 13.1428125 0.185273438 13.1428125 19.9160156 -8.38230469 19.9160156"></polygon>
                    <polygon id="Stroke-8137" stroke="#F4F4F4" stroke-width="0.142" mask="url(#mask-4)" points="-8.38230469 25.2984375 13.1428125 25.2984375 13.1428125 45.0288281 18.5252344 45.0288281 18.5252344 25.2984375 58.8846094 25.2984375 58.8846094 19.9160156 18.5252344 19.9160156 18.5252344 0.185273438 13.1428125 0.185273438 13.1428125 19.9160156 -8.38230469 19.9160156"></polygon>
                </g>
            </g>
        </g>
    </g>
</svg>