<svg xmlns="http://www.w3.org/2000/svg" width="24" height="24" viewBox="0 0 24 24">
    <g fill="none" fill-rule="evenodd">
        <path fill="none" d="M0 0h24v24H0z"/>
        <path fill="#EF2222" d="M21.286 22.7l-4.446-4.533a.999.999 0 0 1 .002-1.402A7.458 7.458 0 0 0 19 11.5C19 7.364 15.636 4 11.5 4S4 7.364 4 11.5 7.364 19 11.5 19c.844 0 1.671-.139 2.458-.411a1 1 0 0 1 .656 1.889A9.485 9.485 0 0 1 11.5 21C6.262 21 2 16.738 2 11.5S6.262 2 11.5 2 21 6.262 21 11.5a9.434 9.434 0 0 1-2.079 5.933l3.793 3.867a.999.999 0 1 1-1.428 1.4z"/>
    </g>
</svg>
