<?xml version="1.0" encoding="UTF-8"?>
<svg width="63px" height="63px" viewBox="0 0 63 63" version="1.1" xmlns="http://www.w3.org/2000/svg" xmlns:xlink="http://www.w3.org/1999/xlink">
    <title>flag / switzerland</title>
    <defs>
        <path d="M44.9995857,22.4983642 C44.9995857,23.412759 44.9431517,24.311614 44.8376446,25.1973828 C44.6274483,26.9705562 44.2103273,28.6823882 43.6116359,30.3050709 C43.1135443,31.6521265 42.4903164,32.943566 41.7534025,34.153217 C41.4908616,34.5866957 41.2152346,35.0079062 40.9281572,35.4168484 C40.7621266,35.6507634 40.5960961,35.8814068 40.4218867,36.1087786 C39.1476228,37.7797165 37.6500765,39.2649945 35.9619631,40.5278081 C32.2062379,43.337241 27.5483862,45 22.5020394,45 C17.4548747,45 12.7929336,43.337241 9.03720842,40.5278081 C7.35400231,39.2649945 5.85645596,37.7797165 4.58137417,36.1087786 C4.4071648,35.8814068 4.24113426,35.6507634 4.07592161,35.4168484 C3.7880263,35.0079062 3.51239926,34.5866957 3.24985836,34.153217 C2.5137624,32.943566 1.8897166,31.6521265 1.39244288,30.3050709 C0.792933607,28.6823882 0.37581256,26.9705562 0.16234473,25.1973828 C0.0568376419,24.311614 -0.000414266462,23.412759 -0.000414266462,22.4983642 C-0.000414266462,18.2813522 1.16098159,14.3268811 3.18933492,10.9514722 C3.47641234,10.4656489 3.78393688,9.99291167 4.11190853,9.53162486 C7.15116698,5.22955289 11.6675247,2.03980371 16.9207962,0.696837514 C16.9412433,0.691930207 16.9616904,0.687840785 16.9854091,0.684569248 C18.7495857,0.238822246 20.5955508,0 22.5020394,0 C27.6898802,0 32.4745039,1.76090513 36.2825737,4.71919302 C38.0467504,6.08342421 39.6007308,7.71019629 40.879902,9.53162486 C40.9526937,9.62895311 41.021396,9.72955289 41.0900983,9.82688113 C41.3403709,10.1949291 41.5841005,10.5711559 41.8106544,10.9514722 C42.5671975,12.2061069 43.1986043,13.5376227 43.6966959,14.9337514 C44.2749402,16.556434 44.6757035,18.269084 44.8662706,20.0455289 C44.9546021,20.8462377 44.9995857,21.6682116 44.9995857,22.4983642" id="path-1"></path>
        <filter x="-35.6%" y="-24.4%" width="171.1%" height="171.1%" filterUnits="objectBoundingBox" id="filter-2">
            <feOffset dx="0" dy="5" in="SourceAlpha" result="shadowOffsetOuter1"></feOffset>
            <feGaussianBlur stdDeviation="4.5" in="shadowOffsetOuter1" result="shadowBlurOuter1"></feGaussianBlur>
            <feColorMatrix values="0 0 0 0 0   0 0 0 0 0   0 0 0 0 0  0 0 0 0.1 0" type="matrix" in="shadowBlurOuter1"></feColorMatrix>
        </filter>
    </defs>
    <g id="המרת-מטח" stroke="none" stroke-width="1" fill="none" fill-rule="evenodd">
        <g id="45-45px" transform="translate(9.000000, -711.000000)">
            <g id="flag-/-switzerland" transform="translate(0.000000, 715.000000)">
                <g id="Fill-1">
                    <use fill="black" fill-opacity="1" filter="url(#filter-2)" xlink:href="#path-1"></use>
                    <use fill="#F62717" fill-rule="evenodd" xlink:href="#path-1"></use>
                </g>
                <polygon id="Fill-4" fill="#FFFFFF" fill-rule="evenodd" points="33.75 19.1346088 25.8658926 19.1346088 25.8658926 11.25 19.1341074 11.25 19.1341074 19.1346088 11.25 19.1346088 11.25 25.866163 19.1341074 25.866163 19.1341074 33.75 25.8658926 33.75 25.8658926 25.866163 33.75 25.866163"></polygon>
            </g>
        </g>
    </g>
</svg>