<?xml version="1.0" encoding="UTF-8"?>
<svg width="63px" height="63px" viewBox="0 0 63 63" version="1.1" xmlns="http://www.w3.org/2000/svg" xmlns:xlink="http://www.w3.org/1999/xlink">
    <title>flag / USA</title>
    <defs>
        <filter x="-60.0%" y="-60.0%" width="220.0%" height="220.0%" filterUnits="objectBoundingBox" id="filter-1">
            <feOffset dx="0" dy="5" in="SourceAlpha" result="shadowOffsetOuter1"></feOffset>
            <feGaussianBlur stdDeviation="4.5" in="shadowOffsetOuter1" result="shadowBlurOuter1"></feGaussianBlur>
            <feColorMatrix values="0 0 0 0 0   0 0 0 0 0   0 0 0 0 0  0 0 0 0.1 0" type="matrix" in="shadowBlurOuter1" result="shadowMatrixOuter1"></feColorMatrix>
            <feMerge>
                <feMergeNode in="shadowMatrixOuter1"></feMergeNode>
                <feMergeNode in="SourceGraphic"></feMergeNode>
            </feMerge>
        </filter>
        <circle id="path-2" cx="22.5" cy="22.5" r="22.5"></circle>
    </defs>
    <g id="המרת-מטח" stroke="none" stroke-width="1" fill="none" fill-rule="evenodd">
        <g id="45-45px" transform="translate(9.000000, -61.000000)">
            <g id="flag-/-USA" transform="translate(0.000000, 65.000000)">
                <g id="usa" filter="url(#filter-1)">
                    <mask id="mask-3" fill="white">
                        <use xlink:href="#path-2"></use>
                    </mask>
                    <use id="Mask" fill="#FFFFFF" fill-rule="nonzero" xlink:href="#path-2"></use>
                    <path d="M22.2875046,22.5237365 L46.6010632,22.5237365 C46.6010632,20.4907933 46.3207287,18.5213741 45.7983781,16.6479447 L22.2875046,16.6479447 L22.2875046,22.5237365 Z" id="Shape" fill="#FC1C44" fill-rule="nonzero" mask="url(#mask-3)"></path>
                    <path d="M22.2875046,10.7722409 L43.1811641,10.7722409 C41.7548257,8.52233082 39.931104,6.53364326 37.8047485,4.89644916 L22.2875046,4.89644916 L22.2875046,10.7722409 Z" id="Shape" fill="#FC1C44" fill-rule="nonzero" mask="url(#mask-3)"></path>
                    <path d="M23.3005316,45.047473 C28.7842571,45.047473 33.8245444,43.2153078 37.8047485,40.1510239 L8.79631475,40.1510239 C12.7765188,43.2153078 17.8168061,45.047473 23.3005316,45.047473 Z" id="Shape" fill="#FC1C44" fill-rule="nonzero" mask="url(#mask-3)"></path>
                    <path d="M3.41989912,34.2752321 L43.1811641,34.2752321 C44.3262578,32.469022 45.2143175,30.4946757 45.7983781,28.3994403 L0.80268511,28.3994403 C1.3867457,30.4946757 2.27480542,32.469022 3.41989912,34.2752321 Z" id="Shape" fill="#FC1C44" fill-rule="nonzero" mask="url(#mask-3)"></path>
                    <path d="M10.7932431,3.5173982 L12.9165951,3.5173982 L10.941511,4.90445564 L11.6959567,7.14882281 L9.72096358,5.76176536 L7.74597047,7.14882281 L8.39765722,5.20993382 C6.65867301,6.61018877 5.13449058,8.25072623 3.8784463,10.0786682 L4.55880362,10.0786682 L3.30157611,10.9615811 C3.10570601,11.2774413 2.91784548,11.5983166 2.73781246,11.9239429 L3.33816522,13.7100928 L2.21810139,12.9234337 C1.93967824,13.4936538 1.68501071,14.0767194 1.45610119,14.6719268 L2.11752683,16.6399383 L4.55880362,16.6399383 L2.58371949,18.0269957 L3.33816522,20.2713629 L1.36317212,18.8843054 L0.180124031,19.7152201 C0.0617100017,20.63535 0,21.5725486 0,22.5237365 L23.3005316,22.5237365 L23.3005316,0 C18.6975844,0 14.4067369,1.29071568 10.7932431,3.5173982 Z M11.6959567,20.2713629 L9.72096358,18.8843054 L7.74597047,20.2713629 L8.5004162,18.0269957 L6.52533208,16.6399383 L8.96660887,16.6399383 L9.72096358,14.3955711 L10.4753183,16.6399383 L12.9165951,16.6399383 L10.941511,18.0269957 L11.6959567,20.2713629 Z M10.941511,11.4657257 L11.6959567,13.7100928 L9.72096358,12.3230354 L7.74597047,13.7100928 L8.5004162,11.4657257 L6.52533208,10.0786682 L8.96660887,10.0786682 L9.72096358,7.83430106 L10.4753183,10.0786682 L12.9165951,10.0786682 L10.941511,11.4657257 Z M20.0537482,20.2713629 L18.078755,18.8843054 L16.1037619,20.2713629 L16.8582077,18.0269957 L14.8831235,16.6399383 L17.3244003,16.6399383 L18.078755,14.3955711 L18.8331098,16.6399383 L21.2743865,16.6399383 L19.2993024,18.0269957 L20.0537482,20.2713629 Z M19.2993024,11.4657257 L20.0537482,13.7100928 L18.078755,12.3230354 L16.1037619,13.7100928 L16.8582077,11.4657257 L14.8831235,10.0786682 L17.3244003,10.0786682 L18.078755,7.83430106 L18.8331098,10.0786682 L21.2743865,10.0786682 L19.2993024,11.4657257 Z M19.2993024,4.90445564 L20.0537482,7.14882281 L18.078755,5.76176536 L16.1037619,7.14882281 L16.8582077,4.90445564 L14.8831235,3.5173982 L17.3244003,3.5173982 L18.078755,1.27303103 L18.8331098,3.5173982 L21.2743865,3.5173982 L19.2993024,4.90445564 Z" id="Shape" fill="#0052B4" fill-rule="nonzero" mask="url(#mask-3)"></path>
                </g>
            </g>
        </g>
    </g>
</svg>